<svg width="149" height="58" viewBox="0 0 149 58" fill="none" xmlns="http://www.w3.org/2000/svg">
<path d="M42.1379 34.5907L49.7687 19.6788C49.7687 19.6788 41.0373 18.4949 37.6588 21.8338C34.5165 24.9393 32.8056 29.0876 31.3986 31.557C29.9917 34.0265 28.9886 34.5907 28.9886 34.5907H42.1379Z" fill="#02DF70"/>
<path d="M42.1379 34.5907L49.7687 19.6788C49.7687 19.6788 41.0373 18.4949 37.6588 21.8338C34.5165 24.9393 32.8056 29.0876 31.3986 31.557C29.9917 34.0265 28.9886 34.5907 28.9886 34.5907H42.1379Z" fill="url(#paint0_linear_154_58)"/>
<path d="M22.2962 19.3706L13.5438 36.2843C13.5438 36.2843 21.24 37.3389 24.8392 34.2374C27.4384 31.9976 30.8327 24.9278 32.2397 22.4583C33.6466 19.9889 34.6496 19.4247 34.6496 19.4247L22.2962 19.3706Z" fill="#07BAA2"/>
<path d="M22.2962 19.3706L13.5438 36.2843C13.5438 36.2843 21.24 37.3389 24.8392 34.2374C27.4384 31.9976 30.8327 24.9278 32.2397 22.4583C33.6466 19.9889 34.6496 19.4247 34.6496 19.4247L22.2962 19.3706Z" fill="url(#paint1_linear_154_58)"/>
<path d="M22.8553 45.5881L26.9655 37.2483C21.399 40.4557 13.3582 39.5412 11.8001 39.5307C10.1154 42.6805 8.83698 45.5107 8.83698 45.5107L22.8553 45.5881Z" fill="#08B4A9"/>
<path d="M22.8553 45.5881L26.9655 37.2483C21.399 40.4557 13.3582 39.5412 11.8001 39.5307C10.1154 42.6805 8.83698 45.5107 8.83698 45.5107L22.8553 45.5881Z" fill="url(#paint2_linear_154_58)"/>
<path d="M41.0117 8.41248L36.5439 17.6704C40.8562 14.6925 50.1477 15.6836 51.6967 15.6941C53.3715 12.5442 54.9478 8.48984 54.9478 8.48984L41.0117 8.41248Z" fill="#00EC6A"/>
<path d="M41.0117 8.41248L36.5439 17.6704C40.8562 14.6925 50.1477 15.6836 51.6967 15.6941C53.3715 12.5442 54.9478 8.48984 54.9478 8.48984L41.0117 8.41248Z" fill="#00EC6A"/>
<path d="M41.0117 8.41248L36.5439 17.6704C40.8562 14.6925 50.1477 15.6836 51.6967 15.6941C53.3715 12.5442 54.9478 8.48984 54.9478 8.48984L41.0117 8.41248Z" fill="url(#paint3_linear_154_58)"/>
<path d="M41.0117 8.41248L36.5439 17.6704C40.8562 14.6925 50.1477 15.6836 51.6967 15.6941C53.3715 12.5442 54.9478 8.48984 54.9478 8.48984L41.0117 8.41248Z" fill="url(#paint4_linear_154_58)"/>
<path d="M59.346 18.5805H73.286V22.1845H64.004V27.0805H72.402V30.6505H64.004V36.3965H73.388V40.0005H59.346V18.5805ZM79.9705 18.5805H85.8525L88.9125 28.3385C89.0485 28.7692 89.1845 29.2338 89.3205 29.7325C89.4791 30.2312 89.6265 30.7298 89.7625 31.2285C89.8985 31.7272 90.0231 32.2145 90.1365 32.6905C90.2498 33.1665 90.3405 33.6085 90.4085 34.0165H90.5445C90.6125 33.6538 90.7031 33.2345 90.8165 32.7585C90.9298 32.2598 91.0545 31.7498 91.1905 31.2285C91.3265 30.7072 91.4625 30.1972 91.5985 29.6985C91.7345 29.1998 91.8591 28.7465 91.9725 28.3385L94.9305 18.5805H100.812L102.41 40.0005H98.0245C97.8885 37.6432 97.7525 35.2858 97.6165 32.9285C97.4805 30.5712 97.3898 28.1912 97.3445 25.7885L97.3105 23.0005H97.2085C96.9138 24.2472 96.5851 25.5505 96.2225 26.9105C95.8825 28.2705 95.5538 29.4605 95.2365 30.4805L92.2105 40.0005H88.6065L85.5125 30.4465C85.1271 29.2225 84.7645 27.9305 84.4245 26.5705C84.0845 25.2105 83.8125 24.0205 83.6085 23.0005H83.5065C83.5065 23.8165 83.4951 24.6778 83.4725 25.5845C83.4498 26.4685 83.4158 27.3525 83.3705 28.2365C83.3478 29.1205 83.3138 29.9932 83.2685 30.8545C83.2458 31.6932 83.2118 32.4638 83.1665 33.1665L82.7585 40.0005H78.4405L79.9705 18.5805ZM115.977 18.5805C117.495 18.5805 118.901 18.7958 120.193 19.2265C121.485 19.6572 122.595 20.3032 123.525 21.1645C124.477 22.0032 125.213 23.0685 125.735 24.3605C126.279 25.6298 126.551 27.1145 126.551 28.8145C126.551 30.8772 126.233 32.6225 125.599 34.0505C124.964 35.4785 124.103 36.6345 123.015 37.5185C121.949 38.4025 120.703 39.0372 119.275 39.4225C117.869 39.8078 116.373 40.0005 114.787 40.0005H109.007V18.5805H115.977ZM112.135 37.4165H114.481C115.569 37.4165 116.634 37.3032 117.677 37.0765C118.719 36.8272 119.637 36.3852 120.431 35.7505C121.247 35.0932 121.904 34.2092 122.403 33.0985C122.901 31.9878 123.151 30.5598 123.151 28.8145C123.151 27.5905 122.969 26.5025 122.607 25.5505C122.244 24.5985 121.723 23.8052 121.043 23.1705C120.363 22.5132 119.535 22.0145 118.561 21.6745C117.609 21.3345 116.543 21.1645 115.365 21.1645H112.135V37.4165ZM133.881 18.5805L139.015 26.9445L144.387 18.5805H147.821L140.783 29.1205L148.161 40.0005H144.557L139.015 31.2965L133.439 40.0005H130.005L137.145 29.1205L130.311 18.5805H133.881Z" fill="white"/>
<defs>
<linearGradient id="paint0_linear_154_58" x1="28.9886" y1="34.5907" x2="49.7164" y2="19.6064" gradientUnits="userSpaceOnUse">
<stop stop-color="#07B9A3"/>
<stop offset="1" stop-color="#07B9A3" stop-opacity="0"/>
</linearGradient>
<linearGradient id="paint1_linear_154_58" x1="17.2363" y1="34.1202" x2="34.5961" y2="19.3617" gradientUnits="userSpaceOnUse">
<stop stop-color="#0E80DF"/>
<stop offset="1" stop-color="#0E7EE0" stop-opacity="0"/>
</linearGradient>
<linearGradient id="paint2_linear_154_58" x1="11.6606" y1="44.2122" x2="26.946" y2="37.2058" gradientUnits="userSpaceOnUse">
<stop stop-color="#0F7BE4"/>
<stop offset="1" stop-color="#0F7AE4" stop-opacity="0"/>
</linearGradient>
<linearGradient id="paint3_linear_154_58" x1="36.5439" y1="13.0414" x2="54.9478" y2="13.0414" gradientUnits="userSpaceOnUse">
<stop stop-color="#04CF8C"/>
<stop offset="1" stop-color="#04CF8C" stop-opacity="0"/>
</linearGradient>
<linearGradient id="paint4_linear_154_58" x1="36.5439" y1="17.6704" x2="54.9639" y2="8.52222" gradientUnits="userSpaceOnUse">
<stop stop-color="#04CF8C"/>
<stop offset="1" stop-color="#04CF8C" stop-opacity="0"/>
</linearGradient>
</defs>
</svg>
